<svg id="Layer_1" data-name="Layer 1" xmlns="http://www.w3.org/2000/svg" viewBox="0 0 952.6 767.3"><defs><style>.cls-1{isolation:isolate;}.cls-2{fill:#115728;}.cls-3{fill:#1a883f;}.cls-4{fill:#167235;}.cls-5{fill:#13622d;}.cls-6{fill:#167134;}.cls-7{fill:#19833c;}.cls-8{fill:#19843d;}.cls-9{fill:#0f5025;}.cls-10{fill:#115a2a;}.cls-11{fill:#19813c;}</style></defs><g class="cls-1"><polygon class="cls-2" points="276.3 409.3 342.2 396.3 130.9 754.3 65 767.3 276.3 409.3"/><polygon class="cls-3" points="336.6 286.5 402.5 273.4 429 511.5 363 524.5 336.6 286.5"/><polygon class="cls-4" points="266.4 244.8 332.3 231.8 402.5 273.4 336.6 286.5 266.4 244.8"/><polygon class="cls-5" points="523.6 356.9 589.5 343.9 445.3 707.4 379.4 720.5 523.6 356.9"/><polygon class="cls-6" points="519.3 130.7 585.2 117.7 658.1 159 592.2 172 519.3 130.7"/><polygon class="cls-7" points="592.2 172 658.1 159 668 434.6 602.1 447.6 592.2 172"/><polygon class="cls-8" points="743.7 178.2 809.6 165.2 876.2 233.3 810.3 246.3 743.7 178.2"/><polygon class="cls-9" points="743.7 178.2 810.3 246.3 603.5 639.8 532.2 595 523.6 356.9 379.4 720.5 306.8 683.8 276.3 409.3 65 767.3 0 696.3 266.4 244.8 336.6 286.5 363 524.5 519.3 130.7 592.2 172 602.1 447.6 743.7 178.2"/><polygon class="cls-10" points="810.3 246.3 876.2 233.3 669.4 626.8 603.5 639.8 810.3 246.3"/><polygon class="cls-11" points="881.7 13 947.6 0 952.6 311.2 886.7 324.3 881.7 13"/><polygon class="cls-9" points="881.7 13 886.7 324.3 810.3 246.3 743.7 178.2 667.3 100.2 881.7 13"/></g></svg>